<?xml version="1.0" standalone="no"?>
<!DOCTYPE svg PUBLIC "-//W3C//DTD SVG 20010904//EN"
 "http://www.w3.org/TR/2001/REC-SVG-20010904/DTD/svg10.dtd">
<svg version="1.0" xmlns="http://www.w3.org/2000/svg"
 width="1024.000000pt" height="1024.000000pt" viewBox="0 0 1024.000000 1024.000000"
 preserveAspectRatio="xMidYMid meet">
<metadata>
Created by potrace 1.11, written by Peter Selinger 2001-2013
</metadata>
<g transform="translate(0.000000,1024.000000) scale(0.100000,-0.100000)"
fill="#000000" stroke="none">
<path d="M2795 7797 c-49 -83 -91 -158 -93 -164 -2 -7 -8 -13 -13 -13 -6 0 -7
-4 -4 -10 3 -5 1 -10 -4 -10 -6 0 -11 -4 -11 -9 0 -5 -41 -78 -91 -162 -51
-85 -101 -170 -111 -189 -11 -19 -47 -78 -79 -131 -32 -54 -62 -105 -66 -115
-4 -11 -12 -24 -17 -31 -24 -28 -32 -38 -32 -43 0 -5 -73 -130 -220 -379 -41
-68 -74 -128 -74 -132 0 -5 -4 -9 -10 -9 -5 0 -10 -4 -10 -10 0 -5 -29 -57
-64 -116 l-64 -107 38 -62 c21 -35 36 -66 33 -69 -4 -3 -2 -6 3 -6 5 0 25 -30
44 -68 19 -37 41 -71 48 -75 6 -4 12 -12 12 -17 0 -5 14 -33 31 -62 35 -59 60
-101 97 -168 14 -25 36 -62 49 -82 12 -21 23 -40 23 -42 0 -3 18 -34 40 -68
22 -35 40 -69 40 -75 0 -7 5 -13 10 -13 6 0 10 -6 10 -13 0 -7 6 -19 13 -25 6
-7 12 -16 12 -20 1 -4 22 -43 49 -87 26 -44 51 -87 56 -95 5 -8 57 -98 116
-200 58 -102 116 -201 128 -220 11 -19 21 -37 21 -40 0 -3 8 -16 16 -30 42
-68 52 -84 110 -187 12 -21 26 -44 31 -50 6 -7 7 -13 4 -13 -4 0 0 -7 9 -16
14 -15 67 -16 496 -16 264 -1 482 2 486 5 3 4 -3 19 -13 34 -10 15 -19 30 -19
33 0 10 -49 85 -59 92 -6 4 -8 8 -3 8 4 0 -3 17 -16 38 -13 20 -35 57 -49 82
-27 48 -162 283 -210 365 -16 28 -32 58 -35 68 -3 9 -9 17 -14 17 -5 0 -9 4
-9 9 0 9 -113 211 -140 251 -6 8 -13 22 -17 30 -4 8 -44 78 -88 155 -45 77
-93 160 -107 185 -14 25 -58 101 -97 168 -39 68 -71 128 -71 133 0 5 -4 9 -10
9 -5 0 -10 4 -10 10 0 5 -14 33 -31 62 l-31 53 23 45 c22 41 86 152 110 190
17 28 205 355 212 370 4 8 16 29 26 45 40 64 91 157 91 166 0 5 5 9 10 9 6 0
10 4 10 10 0 5 18 39 40 75 22 36 40 69 40 74 0 5 6 16 13 23 7 7 30 45 51 83
21 39 42 75 46 80 4 6 19 31 33 56 41 75 52 94 57 99 5 5 37 62 54 97 6 13 15
23 19 23 5 0 5 5 2 10 -3 6 -1 10 4 10 6 0 11 5 11 10 0 6 19 41 41 78 23 37
42 73 42 80 0 6 4 12 8 12 3 0 14 15 23 33 9 17 28 51 42 75 l25 42 -488 0
-488 0 -90 -153z"/>
<path d="M5453 7938 c-5 -7 -27 -58 -48 -113 -21 -55 -45 -116 -53 -135 -8
-19 -14 -37 -14 -40 1 -3 -5 -14 -12 -25 -7 -11 -21 -42 -31 -70 -10 -27 -25
-66 -33 -85 -9 -19 -17 -39 -18 -45 -1 -5 -23 -58 -47 -117 -25 -58 -43 -109
-40 -112 4 -3 2 -6 -4 -6 -9 0 -38 -79 -33 -89 1 -2 -2 -7 -7 -10 -5 -3 -17
-28 -27 -56 -11 -27 -28 -70 -39 -95 -10 -25 -26 -59 -33 -77 -8 -17 -14 -36
-14 -42 0 -6 -4 -19 -10 -29 -5 -9 -16 -34 -25 -54 -8 -21 -22 -54 -31 -74 -9
-20 -17 -42 -19 -48 -1 -6 -8 -24 -15 -41 -7 -16 -14 -34 -16 -40 -3 -12 -61
-153 -74 -180 -15 -34 -71 -170 -69 -170 1 0 -6 -18 -16 -40 -9 -22 -44 -107
-77 -190 -33 -82 -64 -155 -69 -161 -5 -7 -9 -16 -8 -20 2 -5 -3 -20 -9 -34
-20 -43 -45 -105 -47 -115 -2 -5 -26 -66 -55 -135 -29 -69 -53 -129 -55 -135
-1 -5 -8 -23 -15 -40 -7 -16 -13 -33 -12 -37 1 -5 -3 -8 -9 -8 -5 0 -8 -4 -4
-9 3 -5 1 -12 -5 -16 -6 -4 -8 -11 -5 -16 4 -5 1 -9 -6 -9 -7 0 -10 -3 -7 -6
5 -5 -10 -48 -42 -119 -5 -11 -44 -105 -85 -210 -42 -104 -80 -199 -85 -210
-36 -78 -129 -319 -126 -323 3 -2 175 -4 383 -5 l378 0 21 54 c12 30 47 117
79 194 32 77 58 146 58 153 0 6 4 12 9 12 4 0 8 5 8 12 0 10 75 201 119 303
21 47 45 108 47 115 0 3 6 17 12 32 6 16 32 79 57 140 25 62 50 122 55 133 22
48 60 150 60 162 0 7 5 13 10 13 6 0 10 7 10 16 0 9 6 30 14 47 37 81 136 332
136 344 0 7 4 13 9 13 5 0 12 16 15 35 4 19 12 35 18 35 6 0 8 3 5 7 -4 3 -2
12 4 20 6 7 8 13 5 13 -4 0 -1 12 7 28 17 31 39 82 43 97 1 6 21 55 44 110 23
55 43 105 44 110 1 6 7 19 13 30 6 11 11 22 10 25 0 3 10 27 21 54 12 27 22
55 22 62 0 8 5 14 12 14 6 0 9 3 6 6 -3 3 11 45 32 95 21 49 36 89 33 89 -3 0
2 9 11 19 10 11 15 24 12 30 -3 5 -1 11 4 13 6 2 12 13 13 26 0 12 5 22 9 22
4 0 8 9 8 19 0 11 5 23 10 26 6 4 8 11 5 16 -4 5 -2 9 3 9 5 0 9 6 9 13 1 6
32 89 71 182 84 206 85 209 86 215 1 3 10 23 21 45 10 22 20 48 22 59 2 10 9
30 17 45 8 14 33 73 56 131 23 58 46 113 51 122 5 10 9 22 9 28 0 16 -755 14
-767 -2z"/>
<path d="M6350 7946 c0 -2 59 -106 130 -230 72 -125 130 -231 130 -236 0 -6 5
-10 10 -10 6 0 10 -4 10 -9 0 -5 36 -70 80 -146 44 -76 80 -139 80 -140 0 -2
26 -47 58 -102 32 -54 62 -105 65 -113 4 -8 21 -37 38 -65 16 -27 33 -58 36
-67 3 -10 9 -18 14 -18 5 0 9 -4 9 -10 0 -5 23 -47 50 -94 28 -47 50 -88 50
-92 0 -4 6 -15 14 -23 7 -9 28 -43 46 -76 17 -33 44 -81 60 -107 15 -25 39
-66 53 -90 13 -23 35 -61 47 -83 60 -104 59 -98 25 -148 -14 -20 -22 -37 -18
-37 4 0 3 -4 -2 -8 -10 -6 -24 -28 -83 -132 -151 -266 -298 -517 -306 -522 -6
-4 -7 -8 -3 -8 5 0 0 -12 -11 -27 -10 -16 -36 -59 -57 -98 -22 -38 -41 -72
-44 -75 -4 -3 -18 -28 -33 -56 -15 -28 -64 -113 -109 -190 -45 -76 -95 -164
-111 -194 -17 -30 -43 -75 -58 -100 -34 -55 -98 -167 -138 -240 l-30 -55 478
1 c263 1 485 4 492 6 7 3 24 25 36 49 13 24 32 58 42 74 11 17 29 47 40 68 19
34 64 110 98 162 6 11 18 31 24 45 7 14 15 27 18 30 3 3 11 16 19 30 8 14 51
86 94 160 44 74 87 149 97 165 24 41 109 184 129 215 8 14 16 27 16 30 0 3 12
23 26 45 14 22 48 78 74 125 27 47 52 87 55 90 4 3 13 20 21 38 8 17 17 32 21
32 5 0 8 4 8 9 0 5 18 39 40 75 22 36 40 70 40 76 0 5 4 10 9 10 5 0 12 9 16
19 3 11 17 36 30 55 13 20 21 36 17 36 -4 0 -2 4 4 8 6 4 27 36 46 71 l36 64
-30 51 c-17 28 -44 76 -61 106 -16 30 -35 62 -41 70 -6 8 -16 25 -23 37 -7 12
-72 124 -144 250 -73 125 -142 246 -155 268 -65 116 -174 301 -183 311 -5 7
-8 14 -5 17 2 2 -2 10 -11 17 -8 7 -15 16 -15 20 0 4 -18 38 -40 74 -22 36
-40 69 -40 72 0 4 -11 22 -26 41 -14 18 -22 33 -19 33 4 0 -2 12 -13 28 -19
26 -31 47 -90 152 -14 25 -36 62 -49 82 -12 21 -23 42 -23 48 0 5 -4 10 -10
10 -5 0 -10 9 -10 20 0 11 -3 20 -8 20 -4 0 -18 20 -31 45 l-24 45 -488 0
c-269 0 -489 -2 -489 -4z"/>
<path d="M930 3923 c-8 -3 -22 -7 -30 -9 -8 -3 -17 -5 -20 -6 -3 0 -17 -9 -32
-19 -14 -10 -31 -19 -37 -19 -6 0 -11 -4 -11 -10 0 -5 -6 -10 -14 -10 -18 0
-191 -170 -244 -240 -23 -30 -46 -60 -50 -66 -5 -5 -20 -29 -33 -52 -13 -23
-31 -42 -39 -42 -86 -2 -190 -9 -210 -14 -14 -3 -53 -20 -88 -37 -76 -37 -113
-85 -114 -150 0 -36 5 -47 32 -72 28 -24 38 -28 73 -23 58 8 89 31 86 64 -2
15 -7 33 -13 40 -6 9 -2 20 14 37 13 14 27 25 31 25 4 0 20 5 36 11 15 6 45
13 65 15 32 3 36 1 31 -14 -3 -9 -10 -23 -16 -29 -9 -13 -66 -128 -107 -218
-28 -61 -85 -236 -96 -290 -4 -22 -7 -72 -7 -111 0 -87 20 -126 78 -153 52
-25 132 -31 125 -10 -10 30 -6 187 7 239 7 30 15 64 17 76 8 42 48 180 64 224
9 25 17 48 18 53 1 4 3 9 4 12 1 3 3 8 5 13 1 4 7 19 13 35 7 15 17 39 23 55
30 80 54 122 68 122 9 -1 42 -7 73 -14 31 -8 59 -11 62 -8 3 3 6 1 6 -5 0 -6
14 -13 30 -16 17 -4 30 -13 30 -21 0 -12 -21 -117 -35 -176 -2 -8 -11 -51 -20
-95 -9 -44 -19 -87 -22 -95 -3 -8 -7 -28 -10 -45 -5 -41 -11 -70 -13 -70 -2 0
-12 -57 -14 -79 -1 -26 26 -30 183 -23 46 2 45 1 56 62 2 11 10 49 19 85 8 36
17 76 20 90 2 14 10 49 16 78 7 30 13 61 15 70 2 9 4 17 5 17 1 0 3 11 5 25 2
14 10 53 18 88 9 34 16 65 16 67 1 3 2 7 2 10 1 3 3 14 4 25 1 11 4 22 5 25 1
3 3 8 4 13 6 24 19 89 22 102 1 8 5 26 8 40 3 14 10 48 16 75 17 89 50 239 60
275 5 19 10 40 10 46 0 25 -139 43 -200 27z m-66 -160 c-9 -44 -11 -52 -14
-55 -1 -2 -4 -16 -6 -33 -2 -16 -7 -41 -11 -55 -3 -14 -7 -33 -8 -42 -2 -10
-3 -19 -5 -20 -2 -3 -5 -17 -13 -63 -24 -125 -25 -128 -50 -120 -12 4 -56 16
-98 27 l-76 21 11 28 c6 16 14 29 18 29 4 0 8 9 8 20 0 11 5 20 10 20 6 0 10
5 10 10 0 41 210 294 228 275 3 -2 1 -21 -4 -42z"/>
<path d="M5691 3914 c-247 -64 -453 -313 -396 -478 13 -36 55 -78 84 -83 61
-12 106 -9 82 6 -6 4 -13 31 -16 60 -2 28 -7 56 -10 61 -4 6 -1 10 5 10 6 0 9
4 6 8 -7 12 19 119 34 137 7 8 9 15 6 15 -9 0 11 26 66 81 43 45 124 93 139
83 6 -4 -7 -45 -42 -129 -7 -16 -13 -34 -14 -40 -2 -5 -26 -71 -54 -145 -118
-314 -223 -596 -225 -605 -4 -15 -17 -47 -27 -70 -15 -33 -39 -107 -39 -119 0
-10 14 -11 107 -7 13 1 24 10 28 24 4 12 13 36 20 52 7 17 23 59 35 95 13 36
28 74 34 85 5 11 11 25 11 30 1 6 5 19 9 30 5 11 30 79 56 150 65 175 63 169
65 175 8 24 25 60 29 60 2 0 3 -52 2 -115 0 -63 -3 -115 -6 -115 -3 0 -6 -35
-6 -78 -3 -173 -12 -350 -17 -359 -19 -30 58 -43 208 -34 16 1 32 27 75 129
29 70 62 147 73 172 11 25 21 50 23 55 2 11 56 140 79 190 14 31 37 86 40 95
1 3 9 21 18 40 l17 35 -6 -40 c-4 -22 -8 -53 -9 -70 -2 -16 -5 -43 -8 -60 -5
-25 -14 -86 -32 -215 -7 -49 -17 -115 -21 -145 -3 -16 -7 -43 -9 -60 -2 -16
-6 -51 -10 -77 -4 -36 -2 -48 7 -49 35 -3 219 -1 222 2 2 2 7 28 11 58 4 30 9
63 11 75 2 12 6 39 8 61 2 22 6 51 10 65 3 14 8 44 11 68 3 23 7 59 10 80 3
20 8 51 10 67 2 17 4 30 5 30 1 0 3 14 4 30 2 17 7 55 11 85 5 30 10 63 11 73
1 9 2 18 4 20 1 1 4 18 6 37 2 19 5 49 8 65 2 17 7 50 11 75 4 25 7 57 8 73 0
15 3 27 6 27 3 0 6 12 7 28 0 15 4 52 8 82 4 30 9 67 11 81 l3 26 -117 -2
c-64 -1 -119 -3 -122 -3 -4 -1 -9 -12 -13 -25 -3 -13 -15 -45 -28 -73 -12 -27
-23 -51 -23 -54 -1 -3 -9 -23 -19 -45 -10 -22 -24 -58 -32 -79 -8 -22 -18 -44
-22 -50 -12 -16 -67 -160 -64 -168 1 -5 -2 -8 -8 -8 -5 0 -10 -5 -10 -11 0 -6
-6 -25 -14 -42 -58 -133 -109 -261 -109 -272 0 -8 -4 -12 -8 -9 -8 4 -4 144 7
314 2 36 4 76 3 90 -1 35 -1 32 5 165 4 66 8 153 10 193 l4 74 -31 13 c-41 17
-148 16 -216 -1z"/>
<path d="M10066 3862 c-43 -9 -99 -92 -86 -127 4 -11 5 -24 3 -28 -9 -15 42
-77 71 -87 68 -24 135 -3 165 51 61 107 -28 218 -153 191z"/>
<path d="M1488 3845 c-3 -3 -25 -8 -49 -10 -24 -2 -62 -7 -84 -10 -92 -14 -92
-14 -98 -53 -7 -45 -15 -84 -28 -137 -5 -22 -12 -51 -15 -65 -2 -14 -7 -31 -9
-38 -2 -7 -7 -34 -11 -60 -3 -26 -9 -51 -12 -57 -3 -5 -7 -21 -9 -35 -1 -14
-14 -77 -28 -140 -15 -63 -29 -126 -31 -140 -3 -14 -10 -45 -15 -70 -6 -25
-13 -56 -15 -70 -3 -14 -9 -42 -15 -63 -5 -20 -7 -42 -4 -47 3 -6 2 -10 -2
-10 -5 0 -10 -8 -11 -17 -2 -21 -10 -58 -12 -58 -1 0 -3 -15 -6 -34 -4 -29 -2
-33 16 -28 11 3 20 0 20 -6 0 -8 3 -8 8 -2 8 12 82 14 82 2 0 -5 5 -5 12 -1 6
4 32 6 57 5 25 -1 43 1 39 4 -4 4 -2 19 3 34 9 21 32 125 55 240 3 12 12 52
20 88 8 36 13 68 10 71 -3 3 -2 10 3 16 5 6 11 25 14 41 17 112 107 203 164
167 18 -11 30 -53 26 -92 -2 -19 -4 -45 -3 -57 0 -13 -5 -23 -11 -23 -5 0 -8
-4 -5 -8 3 -5 1 -24 -4 -43 -5 -19 -11 -45 -14 -59 -3 -14 -12 -59 -21 -100
-40 -184 20 -284 172 -289 66 -2 132 19 167 54 17 18 18 17 14 -11 -3 -28 -1
-29 38 -30 22 0 46 -4 52 -8 7 -4 12 -3 12 1 0 12 64 10 72 -2 5 -6 8 -5 8 3
0 7 5 10 10 7 6 -3 18 -4 29 0 16 5 29 47 48 165 1 8 4 22 6 30 4 14 15 67 21
100 2 8 6 26 9 40 4 14 9 36 11 50 3 14 8 36 11 50 3 14 8 41 11 60 3 19 9 37
13 40 3 3 7 12 9 20 2 8 16 34 30 58 33 51 92 77 118 50 21 -21 21 -143 -1
-178 -2 -4 -7 -26 -10 -50 -3 -23 -7 -45 -10 -49 -4 -7 -10 -37 -21 -96 -2
-11 -5 -27 -7 -35 -2 -8 -9 -42 -16 -75 -7 -33 -15 -67 -18 -75 -3 -8 -7 -29
-9 -46 -1 -16 -4 -37 -6 -45 -2 -10 8 -14 43 -15 25 0 51 -4 57 -8 7 -4 12 -3
12 2 0 12 43 10 52 -3 5 -6 8 -6 8 1 0 6 13 9 30 6 28 -4 30 -2 36 37 4 23 11
44 15 47 5 3 7 9 5 13 -3 4 0 25 5 47 6 21 12 55 15 74 3 19 10 38 17 42 9 6
9 8 0 8 -9 0 -10 7 -2 26 5 15 12 43 15 63 15 91 55 223 79 260 28 41 77 67
108 56 37 -15 46 -124 16 -203 -6 -15 -10 -28 -9 -30 1 -1 -4 -28 -11 -60 -8
-31 -14 -61 -15 -67 -1 -5 -3 -12 -4 -15 -5 -15 -10 -52 -14 -105 -5 -91 31
-161 99 -190 28 -12 138 -14 175 -4 46 13 140 93 140 119 0 22 20 8 35 -24 13
-28 68 -88 77 -85 2 0 16 -4 31 -10 40 -15 122 -14 162 3 19 8 35 13 35 10 0
-7 25 15 81 70 36 36 49 45 49 32 0 -10 10 -35 21 -56 64 -113 278 -84 371 49
l16 23 16 -30 c25 -49 60 -81 107 -98 94 -34 199 -7 276 72 40 42 42 43 49 21
21 -68 81 -107 164 -107 48 0 136 31 123 43 -3 4 -2 7 3 7 13 0 54 72 54 94 0
12 -10 16 -45 16 -36 0 -48 5 -60 24 -19 28 -18 33 21 216 3 14 7 34 8 46 1
11 6 25 10 32 4 7 5 12 2 12 -2 0 0 15 5 33 5 17 11 43 14 57 6 34 12 60 19
90 3 14 8 36 10 50 2 14 10 48 16 75 6 28 14 61 16 75 3 14 16 74 29 134 14
60 22 113 19 117 -3 5 -1 9 5 9 6 0 8 7 5 15 -4 8 -10 13 -14 10 -4 -2 -32 -7
-61 -11 -30 -3 -67 -8 -84 -11 -16 -2 -42 -5 -57 -6 -16 -1 -28 -4 -28 -8 0
-5 -31 -151 -45 -214 -3 -11 -8 -36 -12 -55 -4 -19 -8 -38 -9 -42 -1 -5 -2
-12 -3 -18 -2 -15 -21 -12 -21 3 0 38 -148 59 -216 31 -17 -7 -34 -11 -36 -8
-3 2 -11 -2 -18 -11 -7 -8 -18 -15 -24 -15 -6 0 -19 -8 -28 -17 -9 -10 -27
-27 -40 -38 -25 -21 -86 -106 -84 -116 0 -4 -6 -15 -15 -25 -34 -39 -77 -194
-83 -302 -5 -87 -48 -142 -110 -142 -63 0 -77 45 -52 163 3 15 8 37 10 50 3
12 7 32 10 45 8 31 16 64 20 87 2 11 19 89 36 173 18 84 30 155 27 158 -3 4
-48 6 -99 6 -148 0 -138 2 -138 -32 l0 -31 -35 34 c-32 31 -39 34 -102 34 -68
1 -147 -20 -171 -44 -7 -7 -18 -13 -23 -13 -26 0 -149 -150 -155 -189 -2 -8
-9 -18 -16 -22 -7 -5 -10 -9 -6 -9 4 0 -1 -20 -11 -43 -21 -48 -39 -126 -46
-200 -9 -86 -50 -143 -112 -157 -30 -7 -39 -5 -60 16 -30 30 -28 61 13 219 14
56 28 116 39 175 10 46 7 138 -5 159 -6 12 -8 21 -4 21 15 0 -76 77 -93 79
-71 8 -142 3 -177 -14 -42 -20 -116 -89 -116 -108 -1 -7 -12 11 -25 38 -36 73
-74 95 -167 91 -77 -2 -113 -16 -161 -60 -30 -28 -29 -31 -14 39 5 19 0 20
-109 20 -63 -1 -118 -5 -123 -10 -6 -6 -13 -26 -16 -45 -3 -19 -8 -42 -10 -50
-2 -8 -6 -26 -9 -40 -3 -14 -10 -50 -16 -80 -6 -30 -13 -66 -16 -79 -3 -13
-11 -50 -19 -83 -7 -32 -14 -61 -14 -63 -1 -3 -1 -6 -2 -7 -2 -7 -7 -36 -12
-63 -5 -35 -30 -93 -49 -116 -51 -63 -161 -45 -149 24 1 4 4 27 7 50 5 43 20
110 31 137 8 20 10 28 18 80 4 24 10 51 14 60 13 25 7 166 -8 184 -7 9 -10 16
-5 16 14 0 -40 52 -66 63 -82 35 -178 20 -256 -39 l-35 -27 10 25 c5 14 12 40
15 59 9 54 14 78 40 194 22 94 23 149 4 130z m2171 -431 c13 -14 31 -74 22
-74 -4 0 -8 -6 -8 -12 0 -7 -3 -24 -6 -38 -3 -14 -9 -43 -13 -65 -11 -52 -11
-55 -14 -57 -1 -2 -3 -12 -5 -23 -4 -30 -22 -115 -25 -125 -1 -3 -2 -8 -1 -12
0 -4 -7 -27 -16 -50 -41 -101 -138 -141 -186 -76 -23 31 -26 121 -7 213 6 30
11 57 11 60 0 2 8 25 19 50 11 25 20 46 20 48 9 36 14 47 22 47 5 0 6 5 3 10
-3 6 -1 10 4 10 6 0 11 6 11 13 0 15 54 68 85 85 22 12 72 9 84 -4z m872 -13
c9 -11 16 -29 14 -38 -2 -10 -11 -54 -20 -98 -9 -44 -19 -87 -22 -95 -3 -8 -7
-24 -8 -35 -5 -47 -39 -182 -53 -210 -36 -71 -121 -99 -167 -54 -16 16 -20 34
-22 99 -1 43 2 94 7 112 5 18 11 46 14 61 11 63 71 193 104 227 61 61 119 73
153 31z"/>
<path d="M9364 3841 c-3 -3 -20 -7 -37 -8 -18 0 -32 -2 -32 -3 0 -2 -28 -6
-82 -11 -34 -3 -47 -23 -58 -84 -2 -16 -22 -111 -44 -210 -22 -99 -42 -191
-44 -205 -3 -14 -11 -47 -17 -75 -6 -27 -13 -59 -16 -70 -2 -11 -8 -43 -14
-71 -19 -89 -22 -109 -23 -121 0 -7 -4 -13 -9 -13 -5 0 -7 -4 -3 -9 9 -15 -46
-98 -72 -110 -86 -39 -125 16 -97 139 7 30 15 69 18 85 6 35 10 54 31 148 3
12 7 34 10 50 3 15 12 60 21 100 8 39 18 83 20 96 3 14 7 28 10 32 2 4 -1 11
-7 14 -15 10 -217 10 -227 1 -7 -8 -8 -13 -11 -42 0 -8 -6 -12 -11 -9 -6 4 -8
10 -6 14 3 4 -12 17 -33 29 -32 18 -49 21 -112 16 -99 -6 -99 -6 -99 -17 0 -5
-7 -7 -15 -3 -8 3 -15 1 -15 -4 0 -5 -12 -16 -27 -24 -29 -15 -113 -91 -113
-102 0 -3 -13 -24 -28 -47 -39 -57 -89 -185 -95 -244 -2 -16 -5 -33 -8 -38 -2
-6 -4 -34 -4 -63 0 -43 -6 -61 -35 -105 -35 -52 -124 -122 -141 -111 -6 3 -7
14 -4 25 4 10 8 31 11 46 2 16 7 39 10 53 3 14 7 32 9 40 4 21 66 311 72 335
2 11 6 31 9 45 3 14 7 32 9 40 7 25 18 84 19 103 0 9 3 17 6 17 11 0 6 50 -4
51 -6 0 -51 1 -101 1 -92 1 -139 -7 -130 -22 3 -5 1 -28 -4 -52 -6 -24 -12
-54 -15 -68 -2 -14 -10 -47 -16 -75 -6 -27 -14 -61 -16 -75 -3 -14 -7 -33 -10
-42 -3 -10 -7 -28 -9 -40 -6 -33 -16 -81 -19 -93 -1 -5 -6 -28 -11 -50 -18
-91 -72 -155 -130 -155 -47 0 -60 42 -41 135 7 35 3 19 56 265 23 107 43 205
44 217 0 13 4 23 7 23 3 0 6 7 6 15 0 17 1 17 -130 17 -91 0 -111 -3 -112 -20
-1 -6 -16 -78 -20 -92 -3 -12 -17 -90 -17 -97 0 -5 -4 -14 -10 -21 -6 -7 -8
-15 -5 -18 3 -3 1 -20 -4 -37 -4 -18 -11 -45 -13 -62 -3 -16 -8 -41 -12 -55
-3 -14 -7 -36 -10 -50 -14 -81 -43 -148 -88 -198 -26 -28 -36 -32 -72 -31 -61
4 -71 33 -49 149 4 19 8 44 9 56 1 11 5 24 8 30 4 5 9 29 13 54 4 25 9 48 12
53 4 7 14 66 16 95 0 6 4 12 9 12 5 0 7 4 4 8 -3 5 4 55 16 110 12 56 18 105
15 108 -9 9 -212 8 -226 -1 -6 -3 -9 -10 -6 -15 13 -21 -18 -19 -47 2 -46 34
-103 35 -218 7 -20 -5 -89 -51 -121 -81 -103 -96 -178 -283 -183 -458 -2 -50
2 -80 18 -147 7 -33 57 -91 89 -106 15 -6 27 -15 27 -18 0 -3 36 -6 80 -7 46
0 80 4 80 9 0 6 4 8 9 5 12 -8 95 49 125 85 23 27 45 36 38 16 -5 -15 49 -87
75 -100 16 -8 55 -15 88 -16 50 -2 71 3 123 29 37 19 76 48 94 71 l32 40 16
-40 c27 -70 78 -101 163 -101 56 0 126 27 166 63 l24 22 -6 -25 c-4 -14 -7
-33 -7 -42 0 -11 -8 -18 -18 -18 -10 0 -28 -7 -40 -16 -12 -8 -22 -13 -22 -10
0 8 -102 -53 -129 -77 -36 -33 -69 -111 -64 -153 10 -97 79 -149 192 -147 31
1 63 3 71 5 32 7 105 51 128 76 28 33 73 117 76 146 2 11 6 28 9 36 4 8 9 27
12 43 3 15 7 39 10 55 6 28 29 52 52 52 22 0 114 61 149 99 29 32 33 33 34 15
0 -26 57 -86 102 -109 44 -22 148 -18 201 8 22 10 62 41 88 68 l48 50 7 -28
c10 -39 41 -81 73 -98 35 -18 182 -16 189 3 2 7 11 12 21 12 9 0 31 13 49 29
33 31 38 29 23 -12 -6 -14 -6 -29 0 -38 5 -8 9 -9 9 -4 0 6 9 11 20 11 11 0
20 -5 20 -11 0 -6 3 -7 8 0 4 6 21 10 37 10 17 0 33 -4 37 -10 5 -7 8 -7 8 0
0 6 22 9 50 8 27 -1 49 1 49 5 -1 4 0 9 1 12 1 3 3 19 5 35 1 17 3 30 4 30 2
0 4 9 6 20 5 26 18 88 20 95 1 3 5 23 10 45 12 64 16 81 41 191 8 39 16 77 18
85 13 72 78 149 125 149 56 0 75 -65 50 -170 -6 -25 -12 -52 -14 -60 -2 -8
-13 -55 -24 -105 -27 -113 -32 -191 -15 -224 7 -13 11 -28 9 -31 -7 -12 59
-67 94 -79 70 -23 199 -5 223 33 4 6 8 7 8 3 0 -5 18 12 39 37 l39 45 21 -42
c31 -64 84 -91 167 -84 49 4 72 11 100 32 30 23 55 60 58 87 1 3 4 10 8 14 15
14 -4 24 -47 24 -66 0 -75 26 -50 155 3 17 8 38 11 47 3 10 8 30 10 45 3 16
10 46 15 68 6 22 12 54 14 70 2 17 4 30 5 30 2 0 10 34 13 60 2 12 6 25 9 30
3 6 4 20 3 33 -1 12 1 22 5 22 6 0 10 24 13 68 0 12 5 22 10 22 4 0 5 5 2 11
-4 6 -13 8 -21 5 -7 -3 -16 -1 -19 4 -3 6 -15 6 -30 0 -15 -6 -27 -6 -30 0 -3
5 -15 6 -28 1 -13 -5 -30 -5 -39 0 -11 6 -19 5 -23 -1 -4 -6 -11 -8 -16 -5
-20 13 -44 -5 -45 -32 -1 -33 -19 -128 -24 -128 -1 0 -3 -9 -5 -20 -4 -31 -14
-79 -30 -147 -8 -35 -16 -74 -18 -88 -10 -56 -30 -117 -50 -155 -36 -67 -60
-87 -109 -92 -38 -5 -48 -2 -60 16 -21 29 -15 94 18 211 28 96 52 236 48 280
-7 81 -59 143 -133 157 -75 15 -128 3 -194 -44 l-47 -33 6 27 c3 16 11 46 16
68 6 22 12 51 15 65 5 33 12 64 19 98 4 15 7 37 7 50 1 12 4 22 7 22 3 0 7 11
8 25 1 13 3 29 4 36 3 12 -37 20 -48 10z m-2399 -432 c15 -15 28 -69 16 -69
-3 0 -7 -8 -7 -17 -1 -18 -7 -53 -18 -103 -16 -67 -45 -206 -50 -235 -5 -25
-39 -85 -61 -105 -14 -13 -41 -24 -67 -27 -35 -4 -47 -1 -63 17 -17 19 -20 36
-19 119 1 140 44 279 118 376 43 56 118 78 151 44z m1665 3 c23 -18 28 -47 17
-94 -4 -16 -9 -40 -12 -55 -3 -16 -8 -34 -11 -42 -2 -8 -7 -30 -10 -50 -2 -20
-7 -47 -11 -61 -3 -14 -7 -31 -9 -39 -31 -155 -78 -221 -160 -221 -56 0 -69
28 -68 144 2 216 112 430 225 435 9 1 27 -7 39 -17z m-985 -861 c-15 -58 -55
-132 -67 -125 -4 3 -8 1 -8 -5 0 -12 -37 -6 -56 10 -28 23 -10 97 30 118 11 7
37 21 56 31 55 30 60 27 45 -29z"/>
</g>
</svg>
